<?xml version="1.0" encoding="UTF-8"?>
<svg id="Layer_2" data-name="Layer 2" xmlns="http://www.w3.org/2000/svg" viewBox="0 0 162.42 144.71">
  <defs>
    <style>
      .cls-1, .cls-2, .cls-3 {
        stroke-linecap: round;
      }

      .cls-1, .cls-2, .cls-3, .cls-4, .cls-5, .cls-6, .cls-7, .cls-8 {
        stroke-miterlimit: 10;
      }

      .cls-1, .cls-2, .cls-3, .cls-4, .cls-7, .cls-8 {
        fill: none;
      }

      .cls-1, .cls-2, .cls-5, .cls-7 {
        stroke: #231f20;
      }

      .cls-2 {
        stroke-width: 1.25px;
      }

      .cls-3 {
        stroke: #132414;
      }

      .cls-4 {
        stroke: #fff;
      }

      .cls-9 {
        fill: #939598;
        opacity: .3;
      }

      .cls-5 {
        fill: #dbedd0;
      }

      .cls-6 {
        fill: #132414;
      }

      .cls-6, .cls-8 {
        stroke: #006838;
      }
    </style>
  </defs>
  <g id="Layer_1-2" data-name="Layer 1">
    <path class="cls-9" d="M0,10.97l135.94,1.03c9.44.07,17.05,7.82,17.05,17.35v98.01c0,9.63-7.78,17.42-17.32,17.35l-118.63-.9C7.61,143.73,0,135.99,0,126.46V11.31"/>
    <path class="cls-5" d="M8.93.5l135.94,1.04c9.44.07,17.05,7.89,17.05,17.51v98.93c0,9.72-7.78,17.59-17.32,17.51l-118.63-.91c-9.44-.07-17.05-7.89-17.05-17.51V.84"/>
    <path class="cls-7" d="M131.67,78.11c-1.36-1.46-5.08-.52-9.55,2.09-2.46,1.44-5.16,3.39-7.82,5.72-7.48,6.57-11.82,13.74-9.71,16,1.52,1.63,5.97.27,11.13-3.06.87-.65,1.75-1.28,2.64-1.9.06-.04.12-.05.19-.07.95-.71,1.91-1.48,2.86-2.3.18-.16.36-.32.54-.47,7.48-6.57,11.82-13.74,9.71-16.01Z"/>
    <path class="cls-7" d="M127.05,68.14c.14,1.44-.95,2.71-2.43,2.85-.76.07-1.48-.18-2.01-.63-.51-.42-.86-1.04-.93-1.74-.09-.97.37-1.86,1.13-2.38.38-.25.81-.42,1.3-.47,1.48-.13,2.8.92,2.93,2.37Z"/>
    <polyline class="cls-7" points="67.65 49.71 67.65 43.52 109.81 43.52 109.81 49.71"/>
    <path class="cls-7" d="M111.86,41.78h-45.94c.44-.8,1.85-6.45,0-11.68-.34-.97-.85-1.62-1.28-2.32,1.68-.5,3.49-1.13,5.23-1.55,15.27-3.62,29.47-2,41.98.85-.52,1.32-1.31,2.89-1.47,6.11-.23,4.58.95,8.03,1.48,8.59Z"/>
    <polyline class="cls-4" points="85.88 77.84 85.88 70.42 92.77 70.42 92.77 77.84"/>
    <polyline class="cls-4" points="92.77 82.45 92.77 92.17 85.88 92.17 85.88 82.45"/>
    <polyline class="cls-4" points="85.88 82.45 76.99 82.45 76.99 77.84 85.88 77.84"/>
    <polyline class="cls-4" points="92.77 77.84 101.1 77.84 101.1 82.45 92.77 82.45"/>
    <path class="cls-7" d="M119.59,75.9c0,2.65-2.22,4.81-4.95,4.81s-4.96-2.15-4.96-4.81,2.22-4.81,4.96-4.81c2.59,0,4.72,1.94,4.94,4.41.01.13.02.27.02.41Z"/>
    <line class="cls-1" x1="115.63" y1="85" x2="122.66" y2="93.27"/>
    <line class="cls-1" x1="110.31" y1="75.49" x2="119.68" y2="75.49"/>
    <line class="cls-2" x1="59.69" y1="49.95" x2="118.31" y2="49.95"/>
    <line class="cls-2" x1="59.36" y1="49.87" x2="52.65" y2="56.97"/>
    <line class="cls-2" x1="118.31" y1="49.95" x2="123.04" y2="56.97"/>
    <line class="cls-2" x1="52.65" y1="56.97" x2="52.65" y2="111.71"/>
    <line class="cls-2" x1="123.04" y1="56.97" x2="123.05" y2="64.44"/>
    <line class="cls-2" x1="52.65" y1="111.71" x2="123.7" y2="111.71"/>
    <line class="cls-2" x1="123.06" y1="72.47" x2="123.07" y2="77.42"/>
    <line class="cls-3" x1="88.51" y1="37.11" x2="88.51" y2="26.55"/>
    <line class="cls-1" x1="103.06" y1="38.4" x2="103.06" y2="28.64"/>
    <line class="cls-3" x1="74.47" y1="38.4" x2="74.47" y2="28.64"/>
    <line class="cls-1" x1="52.65" y1="64.44" x2="123.06" y2="64.44"/>
    <path class="cls-1" d="M123.71,98.52h-4.28"/>
    <line class="cls-2" x1="123.7" y1="94.96" x2="123.7" y2="111.71"/>
    <line class="cls-1" x1="52.91" y1="99.46" x2="101.1" y2="99.46"/>
    <line class="cls-8" x1="149.14" y1="15.85" x2="28.39" y2="16.21"/>
    <line class="cls-8" x1="149.14" y1="119.71" x2="28.39" y2="120.52"/>
    <line class="cls-6" x1="28.39" y1="16.21" x2="28.39" y2="120.52"/>
    <line class="cls-6" x1="149.14" y1="15.85" x2="149.14" y2="120.15"/>
  </g>
</svg>